<?xml version="1.0" encoding="UTF-8" standalone="no"?>
<svg
   width="34"
   height="16"
   version="1.1"
   viewBox="0 0 34 16"
   id="svg141"
   sodipodi:docname="checkmarks.svg"
   inkscape:version="1.1 (c4e8f9ed74, 2021-05-24)"
   xmlns:inkscape="http://www.inkscape.org/namespaces/inkscape"
   xmlns:sodipodi="http://sodipodi.sourceforge.net/DTD/sodipodi-0.dtd"
   xmlns:xlink="http://www.w3.org/1999/xlink"
   xmlns="http://www.w3.org/2000/svg"
   xmlns:svg="http://www.w3.org/2000/svg">
  <sodipodi:namedview
     id="namedview143"
     pagecolor="#000000"
     bordercolor="#ffffff"
     borderopacity="1"
     inkscape:pageshadow="0"
     inkscape:pageopacity="0"
     inkscape:pagecheckerboard="true"
     showgrid="false"
     inkscape:zoom="23.480105"
     inkscape:cx="21.635338"
     inkscape:cy="-7.2827613"
     inkscape:window-width="1920"
     inkscape:window-height="1021"
     inkscape:window-x="1920"
     inkscape:window-y="282"
     inkscape:window-maximized="1"
     inkscape:current-layer="svg141" />
  <defs
     id="defs21">
    <style
       id="current-color-scheme"
       type="text/css">.ColorScheme-Text {
        color:#31363b;
        stop-color:#31363b;
      }
      .ColorScheme-Background {
        color:#eff0f1;
        stop-color:#eff0f1;
      }
      .ColorScheme-Highlight {
        color:#3daee9;
        stop-color:#3daee9;
      }
      .ColorScheme-ViewText {
        color:#31363b;
        stop-color:#31363b;
      }
      .ColorScheme-ViewBackground {
        color:#fcfcfc;
        stop-color:#fcfcfc;
      }
      .ColorScheme-ViewHover {
        color:#93cee9;
        stop-color:#93cee9;
      }
      .ColorScheme-ViewFocus{
        color:#3daee9;
        stop-color:#3daee9;
      }
      .ColorScheme-ButtonText {
        color:#31363b;
        stop-color:#31363b;
      }
      .ColorScheme-ButtonBackground {
        color:#eff0f1;
        stop-color:#eff0f1;
      }
      .ColorScheme-ButtonHover {
        color:#93cee9;
        stop-color:#93cee9;
      }
      .ColorScheme-ButtonFocus{
        color:#3daee9;
        stop-color:#3daee9;
      }</style>
    <linearGradient
       id="ay"
       x1="18"
       x2="32"
       y1="38.362"
       y2="38.362"
       gradientUnits="userSpaceOnUse"
       xlink:href="#hightlight"
       gradientTransform="matrix(1.1428571,0,0,1.1428571,-3.5714286,-5.4802856)" />
    <linearGradient
       id="hightlight"
       inkscape:swatch="solid">
      <stop
         stop-color="#5887fc"
         offset="0"
         id="stop4" />
    </linearGradient>
    <linearGradient
       id="be"
       x1="24"
       x2="24"
       y1="45.362"
       y2="32.253"
       gradientTransform="matrix(1 0 0 .99168 0 .3776)"
       gradientUnits="userSpaceOnUse"
       xlink:href="#dark_checked_bg" />
    <linearGradient
       id="dark_checked_bg"
       inkscape:swatch="gradient">
      <stop
         stop-color="#3458c0"
         offset="0"
         id="stop8" />
      <stop
         stop-color="#3d67e3"
         offset="1"
         id="stop10" />
    </linearGradient>
    <linearGradient
       id="av"
       x1="51.611"
       x2="80.996"
       y1="141.02"
       y2="141.02"
       gradientTransform="matrix(.47644 0 0 .48411 -23.59 -60.272)"
       gradientUnits="userSpaceOnUse"
       xlink:href="#hightlight" />
    <linearGradient
       id="bg"
       x1="51.611"
       x2="80.996"
       y1="141.02"
       y2="141.02"
       gradientTransform="matrix(.47644 0 0 .44953 -23.59 -54.895)"
       gradientUnits="userSpaceOnUse"
       xlink:href="#dark_checked_bg" />
    <linearGradient
       id="linearGradient1015"
       x1="51.611"
       x2="80.996"
       y1="141.02"
       y2="141.02"
       gradientTransform="matrix(.51027 0 0 .51849 -25.834 -65.12)"
       gradientUnits="userSpaceOnUse"
       xlink:href="#hightlight" />
    <linearGradient
       id="linearGradient1017"
       x1="51.611"
       x2="80.996"
       y1="141.02"
       y2="141.02"
       gradientTransform="matrix(.51047 0 0 .5014 -25.846 -62.46)"
       gradientUnits="userSpaceOnUse"
       xlink:href="#dark_checked_bg" />
    <linearGradient
       id="linearGradient1019"
       x1="18"
       x2="32"
       y1="38.362"
       y2="38.362"
       gradientTransform="matrix(1.0714 0 0 1.0714 -1.7857 -2.7401)"
       gradientUnits="userSpaceOnUse"
       xlink:href="#hightlight" />
    <linearGradient
       id="linearGradient1021"
       x1="24"
       x2="24"
       y1="45.362"
       y2="32.253"
       gradientTransform="matrix(1.0714 0 0 1.1061 -1.7857 -4.3129)"
       gradientUnits="userSpaceOnUse"
       xlink:href="#dark_checked_bg" />
    <linearGradient
       id="linearGradient1077"
       x1="18"
       x2="32"
       y1="38.362"
       y2="38.362"
       gradientTransform="translate(10,-59.362)"
       gradientUnits="userSpaceOnUse"
       xlink:href="#hightlight" />
    <linearGradient
       id="linearGradient1079"
       x1="24"
       x2="24"
       y1="45.362"
       y2="32.253"
       gradientTransform="matrix(1 0 0 .99168 10 -58.984)"
       gradientUnits="userSpaceOnUse"
       xlink:href="#dark_checked_bg" />
  </defs>
  <g
     id="16-16-checkbox"
     transform="translate(-19 -.36202)">
    <g
       transform="translate(19)"
       id="g35">
      <g
         transform="translate(0,-30)"
         id="g33">
        <g
           transform="matrix(.92952 0 0 .92914 -156.75 -212.96)"
           id="g23" />
        <rect
           x="17"
           y="30.362"
           width="16"
           height="16"
           color="#000000"
           fill="none"
           id="rect25" />
        <rect
           x="17"
           y="30.362"
           width="16"
           height="16"
           rx="2.8262675"
           ry="2.8262675"
           color="#000000"
           fill="url(#ay)"
           style="fill:#0082ff;fill-opacity:1;stroke-width:1.14286;paint-order:fill markers stroke"
           id="rect29" />
      </g>
    </g>
    <g
       transform="translate(36,-1036)"
       id="g49"
       style="fill:#ffffff;fill-opacity:1">
      <g
         transform="rotate(45,7.5,1026.4)"
         id="g47"
         style="fill:#ffffff;fill-opacity:1">
        <g
           transform="matrix(0.86387888,0,0,0.86387888,13.49567,151.33997)"
           id="g45"
           style="fill:#ffffff;fill-opacity:1">
          <g
             transform="translate(-3,-5)"
             id="g41"
             style="fill:#ffffff;fill-opacity:1">
            <path
               d="m 11.306363,1025.0847 c -0.283305,0.2833 -0.458905,0.6741 -0.458905,1.1083 v 7.8361 H 7.572302 c -0.7899564,0 -1.4265121,0.6968 -1.4265011,1.5651 -1.1e-5,0.8683 0.6365668,1.5694 1.4265011,1.5695 h 4.842412 l 0.142805,10e-5 c 0.789957,0 1.424351,-0.6989 1.42434,-1.5672 v -9.4033 c 0,-0.8684 -0.698854,-1.5672 -1.567256,-1.5673 -0.434168,0 -0.825001,0.1756 -1.108306,0.4589 z"
               fill="#ffffff"
               id="path39"
               style="stroke-width:1.56738;fill:#ffffff;fill-opacity:1" />
          </g>
        </g>
      </g>
    </g>
  </g>
  <g
     id="16-16-radiobutton"
     transform="translate(0.10382998,-0.18919019)">
    <rect
       x="0.00049766997"
       y="0.0018166"
       width="16"
       height="16"
       color="#000000"
       fill="none"
       stroke-width="0.93592"
       id="rect52" />
    <g
       transform="translate(6.0812e-4,0.001628)"
       id="g64">
      <rect
         x="-0.00013811"
         y="0.00015619"
         width="16"
         height="16"
         rx="7.9998002"
         ry="7.9998999"
         color="#000000"
         opacity=".12"
         stroke-width="0.48026"
         id="rect54"
         style="opacity:1;fill:#ffffff;fill-opacity:0.196078" />
      <rect
         x="0.0051601953"
         y="0.0034701652"
         width="15.987599"
         height="15.987599"
         rx="7.9935718"
         ry="7.9940281"
         color="#000000"
         fill="url(#av)"
         stroke-width="0"
         id="rect56"
         style="fill:#0082ff;fill-opacity:1" />
      <rect
         x="4.1351604"
         y="4.1343608"
         width="7.7342782"
         height="7.7342782"
         rx="3.8650124"
         ry="3.8671391"
         color="#000000"
         fill="#ffffff"
         id="rect62"
         style="stroke-width:1.93357" />
    </g>
  </g>
  <g
     id="22-22-radiobutton"
     transform="matrix(0.97870542,0,0,0.97870542,0.09868217,-15.839514)"
     inkscape:label="#22-22-radiobutton">
    <rect
       x="0.00049766997"
       y="0.0018166"
       width="16"
       height="16"
       color="#000000"
       fill="none"
       stroke-width="0.93592"
       id="rect3555" />
    <g
       transform="translate(6.0812e-4,0.001628)"
       id="g3563">
      <rect
         x="-0.00013811"
         y="0.00015619"
         width="16"
         height="16"
         rx="7.9998002"
         ry="7.9998999"
         color="#000000"
         opacity=".12"
         stroke-width="0.48026"
         id="rect3557"
         style="opacity:1;fill:#ffffff;fill-opacity:0.196078" />
      <rect
         x="0.0051601953"
         y="0.0034701652"
         width="15.987599"
         height="15.987599"
         rx="7.9935718"
         ry="7.9940281"
         color="#000000"
         fill="url(#av)"
         stroke-width="0"
         id="rect3559"
         style="fill:#0082ff;fill-opacity:1" />
      <rect
         x="4.0814824"
         y="4.0806828"
         width="7.8416338"
         height="7.8416338"
         rx="3.9186606"
         ry="3.9208169"
         color="#000000"
         fill="#ffffff"
         id="rect3561"
         style="stroke-width:1.96041" />
    </g>
  </g>
  <g
     id="radiobutton"
     transform="matrix(1.915667,0,0,1.915667,-14.547298,-46.488674)"
     inkscape:label="#radiobutton">
    <rect
       x="0.00049766997"
       y="0.0018166"
       width="16"
       height="16"
       color="#000000"
       fill="none"
       stroke-width="0.93592"
       id="rect3567" />
    <g
       transform="translate(6.0812e-4,0.001628)"
       id="g3575">
      <rect
         x="-0.00013811"
         y="0.00015619"
         width="16"
         height="16"
         rx="7.9998002"
         ry="7.9998999"
         color="#000000"
         opacity=".12"
         stroke-width="0.48026"
         id="rect3569"
         style="opacity:1;fill:#ffffff;fill-opacity:0.196078" />
      <rect
         x="0.0051601953"
         y="0.0034701652"
         width="15.987599"
         height="15.987599"
         rx="7.9935718"
         ry="7.9940281"
         color="#000000"
         fill="url(#av)"
         stroke-width="0"
         id="rect3571"
         style="fill:#0082ff;fill-opacity:1" />
      <rect
         x="4.1196284"
         y="4.1188288"
         width="7.7653418"
         height="7.7653418"
         rx="3.8805356"
         ry="3.8826709"
         color="#000000"
         fill="#ffffff"
         id="rect3573"
         style="stroke-width:1.94134" />
    </g>
  </g>
  <g
     id="22-22-checkbox"
     transform="translate(-19,-16.36202)"
     inkscape:label="#22-22-checkbox">
    <g
       transform="translate(19)"
       id="g3777">
      <g
         transform="translate(0,-30)"
         id="g3775">
        <g
           transform="matrix(0.92952,0,0,0.92914,-156.75,-212.96)"
           id="g3767" />
        <rect
           x="17"
           y="30.362"
           width="16"
           height="16"
           color="#000000"
           fill="none"
           id="rect3769" />
        <rect
           x="17.000002"
           y="30.362"
           width="16"
           height="16"
           rx="2.8262675"
           ry="2.8262675"
           color="#000000"
           fill="url(#ay)"
           style="fill:#0082ff;fill-opacity:1;stroke-width:1.14286;paint-order:fill markers stroke"
           id="rect3773" />
      </g>
    </g>
    <g
       transform="translate(36,-1036)"
       id="g3789">
      <g
         transform="rotate(45,7.5,1026.4)"
         id="g3787"
         style="fill:#ffffff;fill-opacity:1">
        <g
           transform="matrix(0.86387888,0,0,0.86387888,13.49567,151.33997)"
           id="g3785"
           style="fill:#ffffff;fill-opacity:1">
          <g
             transform="translate(-3,-5)"
             id="g3781"
             style="fill:#ffffff;fill-opacity:1">
            <path
               d="m 11.306363,1025.0847 c -0.283305,0.2833 -0.458905,0.6741 -0.458905,1.1083 v 7.8361 H 7.572302 c -0.7899564,0 -1.4265121,0.6968 -1.4265011,1.5651 -1.1e-5,0.8683 0.6365668,1.5694 1.4265011,1.5695 h 4.842412 l 0.142805,10e-5 c 0.789957,0 1.424351,-0.6989 1.42434,-1.5672 v -9.4033 c 0,-0.8684 -0.698854,-1.5672 -1.567256,-1.5673 -0.434168,0 -0.825001,0.1756 -1.108306,0.4589 z"
               fill="#ffffff"
               id="path3779"
               style="fill:#ffffff;fill-opacity:1;stroke-width:1.56738" />
          </g>
        </g>
      </g>
    </g>
  </g>
  <g
     id="checkbox"
     transform="matrix(1.9375,0,0,1.9375,-52.75,-47.701395)"
     inkscape:label="#checkbox">
    <g
       transform="translate(16.420836,1.0957467)"
       id="g3883">
      <g
         transform="translate(0.06114909,-28.950773)"
         id="g3881">
        <g
           transform="matrix(0.92952,0,0,0.92914,-156.75,-212.96)"
           id="g3873" />
        <rect
           x="17"
           y="30.362"
           width="16"
           height="16"
           color="#000000"
           fill="none"
           id="rect3875" />
        <rect
           x="19.518015"
           y="28.217024"
           width="16"
           height="16"
           rx="2.8262675"
           ry="2.8262675"
           color="#000000"
           fill="url(#ay)"
           style="fill:#0082ff;fill-opacity:1;stroke-width:1.14286;paint-order:fill markers stroke"
           id="rect3879" />
      </g>
    </g>
    <g
       transform="translate(36,-1036)"
       id="g3895">
      <g
         transform="rotate(45,7.5,1026.4)"
         id="g3893"
         style="fill:#ffffff;fill-opacity:1">
        <g
           transform="matrix(0.86387888,0,0,0.86387888,13.49567,151.33997)"
           id="g3891"
           style="fill:#ffffff;fill-opacity:1">
          <g
             transform="translate(-3,-5)"
             id="g3887"
             style="fill:#ffffff;fill-opacity:1">
            <path
               d="m 11.306363,1025.0847 c -0.283305,0.2833 -0.458905,0.6741 -0.458905,1.1083 v 7.8361 H 7.572302 c -0.7899564,0 -1.4265121,0.6968 -1.4265011,1.5651 -1.1e-5,0.8683 0.6365668,1.5694 1.4265011,1.5695 h 4.842412 l 0.142805,10e-5 c 0.789957,0 1.424351,-0.6989 1.42434,-1.5672 v -9.4033 c 0,-0.8684 -0.698854,-1.5672 -1.567256,-1.5673 -0.434168,0 -0.825001,0.1756 -1.108306,0.4589 z"
               fill="#ffffff"
               id="path3885"
               style="fill:#ffffff;fill-opacity:1;stroke-width:1.56738" />
          </g>
        </g>
      </g>
    </g>
  </g>
</svg>
