<?xml version="1.0" encoding="UTF-8" standalone="no"?>
<svg
   sodipodi:docname="window.svg"
   inkscape:version="1.1.1 (3bf5ae0d25, 2021-09-20)"
   viewBox="0 0 32 32"
   version="1.1"
   id="svg3869"
   height="32"
   width="32"
   xmlns:inkscape="http://www.inkscape.org/namespaces/inkscape"
   xmlns:sodipodi="http://sodipodi.sourceforge.net/DTD/sodipodi-0.dtd"
   xmlns="http://www.w3.org/2000/svg"
   xmlns:svg="http://www.w3.org/2000/svg"
   xmlns:rdf="http://www.w3.org/1999/02/22-rdf-syntax-ns#"
   xmlns:cc="http://creativecommons.org/ns#"
   xmlns:dc="http://purl.org/dc/elements/1.1/">
  <sodipodi:namedview
     inkscape:snap-others="false"
     inkscape:object-nodes="true"
     inkscape:bbox-nodes="true"
     inkscape:snap-bbox="true"
     inkscape:snap-global="true"
     inkscape:snap-nodes="true"
     inkscape:document-rotation="0"
     inkscape:current-layer="svg3869"
     inkscape:window-maximized="1"
     inkscape:window-y="297"
     inkscape:window-x="1920"
     inkscape:cy="7.7500001"
     inkscape:cx="59.625001"
     inkscape:zoom="7.9999999"
     showgrid="true"
     id="namedview17"
     inkscape:window-height="1021"
     inkscape:window-width="1920"
     inkscape:pageshadow="2"
     inkscape:pageopacity="0"
     guidetolerance="10"
     gridtolerance="10"
     objecttolerance="10"
     borderopacity="1"
     bordercolor="#666666"
     pagecolor="#838383"
     fit-margin-top="0"
     fit-margin-left="0"
     fit-margin-right="0"
     fit-margin-bottom="0"
     inkscape:pagecheckerboard="1">
    <inkscape:grid
       id="grid845"
       type="xygrid"
       originx="4"
       originy="-16" />
  </sodipodi:namedview>
  <metadata
     id="metadata26">
    <rdf:RDF>
      <cc:Work
         rdf:about="">
        <dc:format>image/svg+xml</dc:format>
        <dc:type
           rdf:resource="http://purl.org/dc/dcmitype/StillImage" />
        <dc:title />
      </cc:Work>
    </rdf:RDF>
  </metadata>
  <defs
     id="defs3871">
    <style
       id="current-color-scheme"
       type="text/css">
      .ColorScheme-Text {
        color:#31363b;
      }
      .ColorScheme-Background {
        color:#eff0f1;
      }
      .ColorScheme-Highlight {
        color:#3daee9;
      }
      .ColorScheme-ViewText {
        color:#31363b;
      }
      .ColorScheme-ViewBackground {
        color:#fcfcfc;
      }
      .ColorScheme-ViewHover {
        color:#93cee9;
      }
      .ColorScheme-ViewFocus{
        color:#3daee9;
      }
      .ColorScheme-ButtonText {
        color:#31363b;
      }
      .ColorScheme-ButtonBackground {
        color:#eff0f1;
      }
      .ColorScheme-ButtonHover {
        color:#93cee9;
      }
      .ColorScheme-ButtonFocus{
        color:#3daee9;
      }
      .ColorScheme-NegativeText {
        color:#da4453;
      }
      </style>
    <style
       id="current-color-scheme-3"
       type="text/css">
      .ColorScheme-Text {
        color:#7B7C7E;
      }
      .ColorScheme-Background{
        color:#EFF0F1;
      }
      .ColorScheme-Highlight{
        color:#3DAEE6;
      }
      .ColorScheme-ViewText {
        color:#7B7C7E;
      }
      .ColorScheme-ViewBackground{
        color:#FCFCFC;
      }
      .ColorScheme-ViewHover {
        color:#3DAEE6;
      }
      .ColorScheme-ViewFocus{
        color:#1E92FF;
      }
      .ColorScheme-ButtonText {
        color:#7B7C7E;
      }
      .ColorScheme-ButtonBackground{
        color:#EFF0F1;
      }
      .ColorScheme-ButtonHover {
        color:#3DAEE6;
      }
      .ColorScheme-ButtonFocus{
        color:#1E92FF;
      }
</style>
  </defs>
  <g
     transform="translate(55.639142,-14.775611)"
     id="8-8-window-unpin">
    <path
       style="opacity:1;fill:#1e8ff4;fill-opacity:1;stroke:none;stroke-width:0.78944"
       d="m -21.639142,6.775611 a 4,4 0 0 0 -4,4 4,4 0 0 0 4,4 4,4 0 0 0 4,-4 4,4 0 0 0 -4,-4 z m 0,1 a 3,3 0 0 1 3,3 3,3 0 0 1 -3,3 3,3 0 0 1 -3,-3 3,3 0 0 1 3,-3 z"
       id="path829"
       inkscape:connector-curvature="0" />
    <circle
       style="opacity:1;fill:#1e8ff4;fill-opacity:1;stroke:none;stroke-width:0.817803"
       id="path847"
       cx="-21.639141"
       cy="10.775611"
       r="3" />
  </g>
  <g
     transform="translate(55.639142,-22.775611)"
     id="8-8-window-pin">
    <path
       style="opacity:1;fill:#ffffff;fill-opacity:1;stroke:none;stroke-width:0.78944"
       d="m -21.639142,6.775611 a 4,4 0 0 0 -4,4 4,4 0 0 0 4,4 4,4 0 0 0 4,-4 4,4 0 0 0 -4,-4 z m 0,1 a 3,3 0 0 1 3,3 3,3 0 0 1 -3,3 3,3 0 0 1 -3,-3 3,3 0 0 1 3,-3 z"
       id="path829-7"
       inkscape:connector-curvature="0" />
    <circle
       style="opacity:1;fill:#ffffff;fill-opacity:1;stroke:none;stroke-width:0.817803"
       id="path847-5"
       cx="-21.639141"
       cy="10.775611"
       r="3" />
  </g>
  <g
     id="window-close"
     transform="matrix(3.7795275,0,0,3.7795275,-27.999999,-1122.5197)">
    <path
       style="opacity:1;fill:#ffffff;fill-opacity:1;stroke:none;stroke-width:0.895471;stroke-miterlimit:4;stroke-dasharray:none;stroke-opacity:1"
       d="m 0.9007203,293.4803 -0.1870687,0.18707 1.2159465,1.21595 -1.2159465,1.21594 0.1870687,0.18707 1.2159464,-1.21594 1.2159464,1.21594 0.1870686,-0.18707 -1.2159463,-1.21594 1.2159463,-1.21595 -0.1870686,-0.18707 -1.2159464,1.21595 z"
       id="rect864"
       inkscape:connector-curvature="0" />
    <rect
       style="opacity:1;fill:#2020ff;fill-opacity:0;stroke:none;stroke-width:0.848554;stroke-miterlimit:4;stroke-dasharray:none;stroke-opacity:1"
       id="rect892"
       width="4.2333336"
       height="4.2333331"
       x="-1.1882324e-07"
       y="292.76666" />
  </g>
  <g
     transform="translate(-12,-16)"
     id="edit-delete"
     style="clip-rule:evenodd;fill-rule:evenodd;stroke-linejoin:round;stroke-miterlimit:1.41421">
    <path
       d="M 11,15 H 5 C 3.896,15 3,14.104 3,13 V 4 c 0,0 1,0 1,0 0,0 0,9 0,9 0,0.552 0.448,1 1,1 h 6 c 0.552,0 1,-0.448 1,-1 V 4 c 0,0 1,0 1,0 0,0 0,9 0,9 0,1.104 -0.896,2 -2,2 z M 7,5 v 8 H 6 V 5 Z m 3,0 v 8 H 9 V 5 Z m 1,-2 h 4 V 4 H 1 V 3 H 5 V 1 h 6 z M 10,2 H 6 v 1 h 4 z"
       style="fill:#ffffff;fill-opacity:1"
       id="path2-3"
       inkscape:connector-curvature="0" />
    <rect
       style="opacity:1;fill:#ee4a50;fill-opacity:0;stroke-width:1.00619;stroke-miterlimit:1.41421;stroke-dasharray:none"
       id="rect817-6"
       width="16"
       height="16"
       x="0"
       y="0"
       ry="0.87084872" />
  </g>
  <g
     id="window-list">
    <path
       id="rect876"
       style="fill:#ffffff"
       d="M 5,3 V 6 H 27 V 3 H 26 V 5 H 6 V 3 Z M 5,8 V 24 H 27 V 8 Z m 1,1 h 20 v 3 H 6 Z m 11,1 v 1 h 2 v -1 z m 3,0 v 1 h 2 v -1 z m 3,0 v 1 h 2 V 10 Z M 6,13 H 26 V 23 H 6 Z M 5,26 v 3 h 1 v -2 h 20 v 2 h 1 v -3 z" />
    <rect
       y="0"
       x="0"
       height="32"
       width="32"
       id="rect817-7"
       style="clip-rule:evenodd;fill:#ffffff;fill-opacity:0;fill-rule:evenodd;stroke-width:1.00213;stroke-linejoin:round;stroke-miterlimit:1.41421" />
  </g>
  <g
     transform="translate(42,-33)"
     id="16-16-window-pin-nilium"
     inkscape:label="#16-16-window-pin-nilium">
    <path
       id="rect858"
       style="fill:#ffffff;fill-opacity:1;stroke-width:0.92582"
       d="M 4,1 V 4 H 1 v 1 h 3 v 6 1 h 1 6 v 3 h 1 v -3 h 3 V 11 H 12 V 4 H 5 V 1 Z m 1,4 h 6 v 6 H 5 Z"
       sodipodi:nodetypes="cccccccccccccccccccccccc" />
    <rect
       style="fill:#00ffff;fill-opacity:0"
       id="rect872"
       width="16"
       height="16"
       x="0"
       y="0" />
  </g>
  <g
     transform="translate(39,-17)"
     id="window-pin-nilium"
     inkscape:label="#window-pin-nilium">
    <path
       id="rect878"
       style="fill:#ffffff;fill-opacity:1;stroke-width:1.0328"
       d="M 5,2 V 5 H 2 v 1 h 3 v 10 1 h 11 v 3 h 1 v -3 h 3 V 16 H 17 V 6 5 H 6 V 2 Z M 6,6 H 16 V 16 H 6 Z"
       sodipodi:nodetypes="cccccccccccccccccccccccc" />
    <rect
       style="fill:#00ffff;fill-opacity:0"
       id="rect930"
       width="22"
       height="22"
       x="0"
       y="0" />
  </g>
  <g
     transform="translate(64,-33)"
     id="16-16-window-unpin">
    <path
       id="rect865-3-6"
       style="fill:#ffffff"
       d="M 4,1 V 4 H 1 V 5 H 4 5 V 4 1 Z m 4,3 v 1 h 3 v 3 h 1 V 5 4 H 11 Z M 4,8 v 3 1 H 5 8 V 11 H 5 V 8 Z m 7,3 v 1 3 h 1 v -3 h 3 v -1 h -3 z"
       sodipodi:nodetypes="cccccccccccccccccccccccccccccccccccc" />
    <rect
       style="fill:#00ffff;fill-opacity:0"
       id="rect961"
       width="16"
       height="16"
       x="0"
       y="0" />
  </g>
  <g
     transform="translate(61,-17)"
     id="window-unpin">
    <path
       id="path993"
       style="fill:#ffffff;fill-opacity:1;stroke-width:1.0328"
       d="M 5,2 V 5 H 2 V 6 H 4 5 6 V 5 2 Z m 5,3 v 1 h 6 v 6 h 1 V 6 5 Z m -5,5 v 6 1 h 7 V 16 H 6 v -6 z m 11,6 v 1 2 1 h 1 v -3 h 3 v -1 h -1 -2 z" />
    <rect
       y="0"
       x="0"
       height="22"
       width="22"
       id="rect930-9"
       style="fill:#00ffff;fill-opacity:0" />
  </g>
  <g
     id="22-22-window-close"
     transform="translate(-22,2.292969)">
    <path
       id="rect861"
       style="opacity:1;fill:#ffffff;fill-opacity:1;stroke-width:1.06719"
       d="M 4.105469,3.3984377 3.3984377,4.105469 10.292969,11 3.3984377,17.894531 4.105469,18.601562 11,11.707031 17.894531,18.601562 18.601562,17.894531 11.707031,11 18.601562,4.105469 17.894531,3.3984377 11,10.292969 Z" />
    <rect
       style="opacity:1;fill:#00ffff;fill-opacity:0"
       id="rect881"
       width="22"
       height="22"
       x="0"
       y="0" />
  </g>
  <g
     id="8-8-window-close"
     transform="translate(-28.031152,22.326985)">
    <path
       id="rect882"
       style="fill:#ffffff;fill-opacity:1;stroke-width:1.11803"
       d="M 0.81835937,0.11132811 0.11132811,0.81835937 3.2929688,4 0.11132811,7.1816406 0.81835937,7.8886719 4,4.7070312 7.1816406,7.8886719 7.8886719,7.1816406 4.7070312,4 7.8886719,0.81835937 7.1816406,0.11132811 4,3.2929688 Z" />
    <rect
       style="fill:#00ffff;fill-opacity:0"
       id="rect902"
       width="8"
       height="8"
       x="0"
       y="0" />
  </g>
  <g
     style="clip-rule:evenodd;fill-rule:evenodd;stroke-linejoin:round;stroke-miterlimit:1.41421"
     id="window-pin"
     transform="translate(39.51,8.249)"
     inkscape:label="#window-pin">
    <path
       inkscape:connector-curvature="0"
       id="path2-8"
       style="fill:#ffffff"
       d="M 18.057,7.406 C 17.51,7.728 16.843,7.769 16.266,7.527 l -2.309,3.682 c 0.52,0.865 0.565,1.937 0.135,2.838 L 11.384,11.34 6.434,16.289 3.943,18.04 5.727,15.582 10.677,10.632 7.97,7.925 C 8.871,7.495 9.942,7.54 10.808,8.06 L 14.49,5.751 C 14.248,5.174 14.288,4.506 14.611,3.96 Z" />
    <rect
       y="0"
       x="0"
       height="22"
       width="22"
       id="rect817-3"
       style="fill:#ffffff;fill-opacity:0;stroke-width:0.94403" />
  </g>
  <g
     style="clip-rule:evenodd;fill-rule:evenodd;stroke-linejoin:round;stroke-miterlimit:1.41421"
     id="16-16-window-pin"
     transform="translate(67,9)"
     inkscape:label="#16-16-window-pin">
    <path
       inkscape:connector-curvature="0"
       id="path1052"
       style="fill:#ffffff;stroke-width:0.756287"
       d="m 16.337115,8.2819058 c -0.413689,0.2435243 -0.918132,0.2745321 -1.35451,0.091511 L 13.23634,11.158064 c 0.393269,0.654188 0.427302,1.464927 0.102098,2.146341 L 11.290414,11.257137 7.5467952,15 5.6628852,16.324258 7.0121006,14.465305 10.755719,10.721687 8.7084515,8.6744186 C 9.3898658,8.3492154 10.199849,8.3832483 10.854793,8.7765173 L 13.63944,7.0302515 C 13.456419,6.5938741 13.48667,6.0886746 13.730951,5.6757421 Z" />
    <rect
       y="0"
       x="0"
       height="22"
       width="22"
       id="rect1054"
       style="fill:#ffffff;fill-opacity:0;stroke-width:0.94403" />
  </g>
</svg>
